<mxfile host="app.diagrams.net" agent="Mozilla/5.0 (X11; Linux x86_64; rv:141.0) Gecko/20100101 Firefox/141.0" version="28.1.1">
  <diagram name="Page-1" id="B_zjcE1Lw5Svu2BFpcR3">
    <mxGraphModel dx="2021" dy="1131" grid="1" gridSize="10" guides="1" tooltips="1" connect="1" arrows="1" fold="1" page="1" pageScale="1" pageWidth="827" pageHeight="1169" math="0" shadow="0">
      <root>
        <mxCell id="0" />
        <mxCell id="1" parent="0" />
        <mxCell id="Xe7ZW9W7hVUSbhxKSRll-1" value="&lt;div&gt;Seat Ibiza&lt;/div&gt;" style="rounded=0;whiteSpace=wrap;html=1;align=center;fontFamily=Inter;fontSource=https%3A%2F%2Ffonts.googleapis.com%2Fcss%3Ffamily%3DInter;" vertex="1" parent="1">
          <mxGeometry x="160" y="30" width="80" height="80" as="geometry" />
        </mxCell>
        <mxCell id="Xe7ZW9W7hVUSbhxKSRll-2" value="&lt;div&gt;Renault Clio&lt;/div&gt;" style="rounded=0;whiteSpace=wrap;html=1;align=center;fontFamily=Inter;fontSource=https%3A%2F%2Ffonts.googleapis.com%2Fcss%3Ffamily%3DInter;" vertex="1" parent="1">
          <mxGeometry x="240" y="30" width="80" height="80" as="geometry" />
        </mxCell>
        <mxCell id="Xe7ZW9W7hVUSbhxKSRll-3" value="Opel Corsa" style="rounded=0;whiteSpace=wrap;html=1;align=center;fontFamily=Inter;fontSource=https%3A%2F%2Ffonts.googleapis.com%2Fcss%3Ffamily%3DInter;" vertex="1" parent="1">
          <mxGeometry x="320" y="30" width="80" height="80" as="geometry" />
        </mxCell>
        <mxCell id="Xe7ZW9W7hVUSbhxKSRll-4" value="Fiat Tipo" style="rounded=0;whiteSpace=wrap;html=1;align=center;fontFamily=Inter;fontSource=https%3A%2F%2Ffonts.googleapis.com%2Fcss%3Ffamily%3DInter;" vertex="1" parent="1">
          <mxGeometry x="400" y="30" width="80" height="80" as="geometry" />
        </mxCell>
        <mxCell id="Xe7ZW9W7hVUSbhxKSRll-5" value="EEPROM" style="text;html=1;align=center;verticalAlign=middle;whiteSpace=wrap;rounded=0;fontFamily=Inter;fontSource=https%3A%2F%2Ffonts.googleapis.com%2Fcss%3Ffamily%3DInter;" vertex="1" parent="1">
          <mxGeometry x="160" width="60" height="30" as="geometry" />
        </mxCell>
        <mxCell id="Xe7ZW9W7hVUSbhxKSRll-6" value="0" style="text;html=1;align=center;verticalAlign=middle;whiteSpace=wrap;rounded=0;" vertex="1" parent="1">
          <mxGeometry x="160" y="30" width="20" height="20" as="geometry" />
        </mxCell>
        <mxCell id="Xe7ZW9W7hVUSbhxKSRll-7" value="1" style="text;html=1;align=center;verticalAlign=middle;whiteSpace=wrap;rounded=0;" vertex="1" parent="1">
          <mxGeometry x="240" y="30" width="20" height="20" as="geometry" />
        </mxCell>
        <mxCell id="Xe7ZW9W7hVUSbhxKSRll-8" value="2" style="text;html=1;align=center;verticalAlign=middle;whiteSpace=wrap;rounded=0;" vertex="1" parent="1">
          <mxGeometry x="320" y="30" width="20" height="20" as="geometry" />
        </mxCell>
        <mxCell id="Xe7ZW9W7hVUSbhxKSRll-9" value="3" style="text;html=1;align=center;verticalAlign=middle;whiteSpace=wrap;rounded=0;" vertex="1" parent="1">
          <mxGeometry x="400" y="30" width="20" height="20" as="geometry" />
        </mxCell>
        <mxCell id="Xe7ZW9W7hVUSbhxKSRll-10" value="Vector" style="text;html=1;align=center;verticalAlign=middle;whiteSpace=wrap;rounded=0;fontFamily=Inter;fontSource=https%3A%2F%2Ffonts.googleapis.com%2Fcss%3Ffamily%3DInter;" vertex="1" parent="1">
          <mxGeometry x="100" y="170" width="60" height="30" as="geometry" />
        </mxCell>
        <mxCell id="Xe7ZW9W7hVUSbhxKSRll-11" value="0" style="rounded=0;whiteSpace=wrap;html=1;fontFamily=Inter;fontSource=https%3A%2F%2Ffonts.googleapis.com%2Fcss%3Ffamily%3DInter;" vertex="1" parent="1">
          <mxGeometry x="160" y="170" width="30" height="30" as="geometry" />
        </mxCell>
        <mxCell id="Xe7ZW9W7hVUSbhxKSRll-12" value="1" style="rounded=0;whiteSpace=wrap;html=1;fontFamily=Inter;fontSource=https%3A%2F%2Ffonts.googleapis.com%2Fcss%3Ffamily%3DInter;" vertex="1" parent="1">
          <mxGeometry x="190" y="170" width="30" height="30" as="geometry" />
        </mxCell>
        <mxCell id="Xe7ZW9W7hVUSbhxKSRll-13" value="2" style="rounded=0;whiteSpace=wrap;html=1;fontFamily=Inter;fontSource=https%3A%2F%2Ffonts.googleapis.com%2Fcss%3Ffamily%3DInter;" vertex="1" parent="1">
          <mxGeometry x="220" y="170" width="30" height="30" as="geometry" />
        </mxCell>
        <mxCell id="Xe7ZW9W7hVUSbhxKSRll-14" value="3" style="rounded=0;whiteSpace=wrap;html=1;fontFamily=Inter;fontSource=https%3A%2F%2Ffonts.googleapis.com%2Fcss%3Ffamily%3DInter;" vertex="1" parent="1">
          <mxGeometry x="250" y="170" width="30" height="30" as="geometry" />
        </mxCell>
        <mxCell id="Xe7ZW9W7hVUSbhxKSRll-15" value="" style="endArrow=none;html=1;rounded=0;exitX=0.5;exitY=1;exitDx=0;exitDy=0;entryX=0.5;entryY=0;entryDx=0;entryDy=0;endSize=5;startSize=5;endFill=0;opacity=50;" edge="1" parent="1" source="Xe7ZW9W7hVUSbhxKSRll-1" target="Xe7ZW9W7hVUSbhxKSRll-11">
          <mxGeometry width="50" height="50" relative="1" as="geometry">
            <mxPoint x="200" y="170" as="sourcePoint" />
            <mxPoint x="250" y="120" as="targetPoint" />
          </mxGeometry>
        </mxCell>
        <mxCell id="Xe7ZW9W7hVUSbhxKSRll-16" value="" style="endArrow=none;html=1;rounded=0;exitX=0.5;exitY=1;exitDx=0;exitDy=0;entryX=0.5;entryY=0;entryDx=0;entryDy=0;endSize=5;startSize=5;endFill=0;opacity=50;" edge="1" parent="1" source="Xe7ZW9W7hVUSbhxKSRll-2" target="Xe7ZW9W7hVUSbhxKSRll-12">
          <mxGeometry width="50" height="50" relative="1" as="geometry">
            <mxPoint x="265" y="160" as="sourcePoint" />
            <mxPoint x="240" y="220" as="targetPoint" />
          </mxGeometry>
        </mxCell>
        <mxCell id="Xe7ZW9W7hVUSbhxKSRll-17" value="" style="endArrow=none;html=1;rounded=0;exitX=0.5;exitY=1;exitDx=0;exitDy=0;entryX=0.5;entryY=0;entryDx=0;entryDy=0;endSize=5;startSize=5;endFill=0;opacity=50;" edge="1" parent="1" source="Xe7ZW9W7hVUSbhxKSRll-3" target="Xe7ZW9W7hVUSbhxKSRll-13">
          <mxGeometry width="50" height="50" relative="1" as="geometry">
            <mxPoint x="385" y="170" as="sourcePoint" />
            <mxPoint x="310" y="230" as="targetPoint" />
          </mxGeometry>
        </mxCell>
        <mxCell id="Xe7ZW9W7hVUSbhxKSRll-18" value="" style="endArrow=none;html=1;rounded=0;exitX=0.5;exitY=1;exitDx=0;exitDy=0;entryX=0.5;entryY=0;entryDx=0;entryDy=0;endSize=5;startSize=5;endFill=0;opacity=50;" edge="1" parent="1" source="Xe7ZW9W7hVUSbhxKSRll-4" target="Xe7ZW9W7hVUSbhxKSRll-14">
          <mxGeometry width="50" height="50" relative="1" as="geometry">
            <mxPoint x="465" y="160" as="sourcePoint" />
            <mxPoint x="340" y="220" as="targetPoint" />
          </mxGeometry>
        </mxCell>
        <mxCell id="Xe7ZW9W7hVUSbhxKSRll-37" value="&lt;div&gt;Seat Ibiza&lt;/div&gt;" style="rounded=0;whiteSpace=wrap;html=1;align=center;fontFamily=Inter;fontSource=https%3A%2F%2Ffonts.googleapis.com%2Fcss%3Ffamily%3DInter;" vertex="1" parent="1">
          <mxGeometry x="160" y="350" width="80" height="80" as="geometry" />
        </mxCell>
        <mxCell id="Xe7ZW9W7hVUSbhxKSRll-38" value="&lt;div&gt;Renault Clio&lt;/div&gt;" style="rounded=0;whiteSpace=wrap;html=1;align=center;fontFamily=Inter;fontSource=https%3A%2F%2Ffonts.googleapis.com%2Fcss%3Ffamily%3DInter;" vertex="1" parent="1">
          <mxGeometry x="240" y="350" width="80" height="80" as="geometry" />
        </mxCell>
        <mxCell id="Xe7ZW9W7hVUSbhxKSRll-39" value="Opel Corsa" style="rounded=0;whiteSpace=wrap;html=1;align=center;fontFamily=Inter;fontSource=https%3A%2F%2Ffonts.googleapis.com%2Fcss%3Ffamily%3DInter;textOpacity=50;" vertex="1" parent="1">
          <mxGeometry x="320" y="350" width="80" height="80" as="geometry" />
        </mxCell>
        <mxCell id="Xe7ZW9W7hVUSbhxKSRll-40" value="Fiat Tipo" style="rounded=0;whiteSpace=wrap;html=1;align=center;fontFamily=Inter;fontSource=https%3A%2F%2Ffonts.googleapis.com%2Fcss%3Ffamily%3DInter;" vertex="1" parent="1">
          <mxGeometry x="400" y="350" width="80" height="80" as="geometry" />
        </mxCell>
        <mxCell id="Xe7ZW9W7hVUSbhxKSRll-41" value="EEPROM" style="text;html=1;align=center;verticalAlign=middle;whiteSpace=wrap;rounded=0;fontFamily=Inter;fontSource=https%3A%2F%2Ffonts.googleapis.com%2Fcss%3Ffamily%3DInter;" vertex="1" parent="1">
          <mxGeometry x="160" y="320" width="60" height="30" as="geometry" />
        </mxCell>
        <mxCell id="Xe7ZW9W7hVUSbhxKSRll-42" value="0" style="text;html=1;align=center;verticalAlign=middle;whiteSpace=wrap;rounded=0;" vertex="1" parent="1">
          <mxGeometry x="160" y="350" width="20" height="20" as="geometry" />
        </mxCell>
        <mxCell id="Xe7ZW9W7hVUSbhxKSRll-43" value="1" style="text;html=1;align=center;verticalAlign=middle;whiteSpace=wrap;rounded=0;" vertex="1" parent="1">
          <mxGeometry x="240" y="350" width="20" height="20" as="geometry" />
        </mxCell>
        <mxCell id="Xe7ZW9W7hVUSbhxKSRll-44" value="2" style="text;html=1;align=center;verticalAlign=middle;whiteSpace=wrap;rounded=0;textOpacity=50;" vertex="1" parent="1">
          <mxGeometry x="320" y="350" width="20" height="20" as="geometry" />
        </mxCell>
        <mxCell id="Xe7ZW9W7hVUSbhxKSRll-45" value="3" style="text;html=1;align=center;verticalAlign=middle;whiteSpace=wrap;rounded=0;" vertex="1" parent="1">
          <mxGeometry x="400" y="350" width="20" height="20" as="geometry" />
        </mxCell>
        <mxCell id="Xe7ZW9W7hVUSbhxKSRll-46" value="Vector" style="text;html=1;align=center;verticalAlign=middle;whiteSpace=wrap;rounded=0;fontFamily=Inter;fontSource=https%3A%2F%2Ffonts.googleapis.com%2Fcss%3Ffamily%3DInter;" vertex="1" parent="1">
          <mxGeometry x="100" y="490" width="60" height="30" as="geometry" />
        </mxCell>
        <mxCell id="Xe7ZW9W7hVUSbhxKSRll-47" value="0" style="rounded=0;whiteSpace=wrap;html=1;fontFamily=Inter;fontSource=https%3A%2F%2Ffonts.googleapis.com%2Fcss%3Ffamily%3DInter;" vertex="1" parent="1">
          <mxGeometry x="160" y="490" width="30" height="30" as="geometry" />
        </mxCell>
        <mxCell id="Xe7ZW9W7hVUSbhxKSRll-48" value="1" style="rounded=0;whiteSpace=wrap;html=1;fontFamily=Inter;fontSource=https%3A%2F%2Ffonts.googleapis.com%2Fcss%3Ffamily%3DInter;" vertex="1" parent="1">
          <mxGeometry x="190" y="490" width="30" height="30" as="geometry" />
        </mxCell>
        <mxCell id="Xe7ZW9W7hVUSbhxKSRll-50" value="3" style="rounded=0;whiteSpace=wrap;html=1;fontFamily=Inter;fontSource=https%3A%2F%2Ffonts.googleapis.com%2Fcss%3Ffamily%3DInter;" vertex="1" parent="1">
          <mxGeometry x="220" y="490" width="30" height="30" as="geometry" />
        </mxCell>
        <mxCell id="Xe7ZW9W7hVUSbhxKSRll-51" value="" style="endArrow=none;html=1;rounded=0;exitX=0.5;exitY=1;exitDx=0;exitDy=0;entryX=0.5;entryY=0;entryDx=0;entryDy=0;endSize=5;startSize=5;endFill=0;opacity=50;" edge="1" parent="1" source="Xe7ZW9W7hVUSbhxKSRll-37" target="Xe7ZW9W7hVUSbhxKSRll-47">
          <mxGeometry width="50" height="50" relative="1" as="geometry">
            <mxPoint x="200" y="490" as="sourcePoint" />
            <mxPoint x="250" y="440" as="targetPoint" />
          </mxGeometry>
        </mxCell>
        <mxCell id="Xe7ZW9W7hVUSbhxKSRll-52" value="" style="endArrow=none;html=1;rounded=0;exitX=0.5;exitY=1;exitDx=0;exitDy=0;entryX=0.5;entryY=0;entryDx=0;entryDy=0;endSize=5;startSize=5;endFill=0;opacity=50;" edge="1" parent="1" source="Xe7ZW9W7hVUSbhxKSRll-38" target="Xe7ZW9W7hVUSbhxKSRll-48">
          <mxGeometry width="50" height="50" relative="1" as="geometry">
            <mxPoint x="265" y="480" as="sourcePoint" />
            <mxPoint x="240" y="540" as="targetPoint" />
          </mxGeometry>
        </mxCell>
        <mxCell id="Xe7ZW9W7hVUSbhxKSRll-54" value="" style="endArrow=none;html=1;rounded=0;exitX=0.5;exitY=1;exitDx=0;exitDy=0;entryX=0.5;entryY=0;entryDx=0;entryDy=0;endSize=5;startSize=5;endFill=0;opacity=50;" edge="1" parent="1" source="Xe7ZW9W7hVUSbhxKSRll-40" target="Xe7ZW9W7hVUSbhxKSRll-50">
          <mxGeometry width="50" height="50" relative="1" as="geometry">
            <mxPoint x="465" y="480" as="sourcePoint" />
            <mxPoint x="340" y="540" as="targetPoint" />
          </mxGeometry>
        </mxCell>
        <mxCell id="Xe7ZW9W7hVUSbhxKSRll-56" value="Usuario borra la ranura 2:" style="text;html=1;align=left;verticalAlign=middle;whiteSpace=wrap;rounded=0;fontFamily=Inter;fontSource=https%3A%2F%2Ffonts.googleapis.com%2Fcss%3Ffamily%3DInter;" vertex="1" parent="1">
          <mxGeometry x="10" y="250" width="150" height="30" as="geometry" />
        </mxCell>
        <mxCell id="Xe7ZW9W7hVUSbhxKSRll-57" value="" style="endArrow=diamond;html=1;rounded=0;strokeColor=default;align=center;verticalAlign=middle;fontFamily=Helvetica;fontSize=11;fontColor=default;labelBackgroundColor=default;startSize=0;endSize=0;exitX=0;exitY=1;exitDx=0;exitDy=0;entryX=1;entryY=0;entryDx=0;entryDy=0;strokeWidth=2;curved=0;startArrow=diamond;startFill=1;endFill=1;" edge="1" parent="1" source="Xe7ZW9W7hVUSbhxKSRll-39" target="Xe7ZW9W7hVUSbhxKSRll-39">
          <mxGeometry width="50" height="50" relative="1" as="geometry">
            <mxPoint x="410" y="280" as="sourcePoint" />
            <mxPoint x="460" y="230" as="targetPoint" />
          </mxGeometry>
        </mxCell>
        <mxCell id="Xe7ZW9W7hVUSbhxKSRll-58" value="" style="endArrow=diamond;html=1;rounded=0;strokeColor=default;align=center;verticalAlign=middle;fontFamily=Helvetica;fontSize=11;fontColor=default;labelBackgroundColor=default;startSize=0;endSize=0;exitX=0;exitY=0;exitDx=0;exitDy=0;entryX=1;entryY=1;entryDx=0;entryDy=0;strokeWidth=2;curved=0;startArrow=diamond;startFill=1;endFill=1;" edge="1" parent="1" source="Xe7ZW9W7hVUSbhxKSRll-39" target="Xe7ZW9W7hVUSbhxKSRll-39">
          <mxGeometry width="50" height="50" relative="1" as="geometry">
            <mxPoint x="370" y="460" as="sourcePoint" />
            <mxPoint x="450" y="380" as="targetPoint" />
          </mxGeometry>
        </mxCell>
        <mxCell id="Xe7ZW9W7hVUSbhxKSRll-59" value="Usuario añade una ranura nueva:" style="text;html=1;align=left;verticalAlign=middle;whiteSpace=wrap;rounded=0;fontFamily=Inter;fontSource=https%3A%2F%2Ffonts.googleapis.com%2Fcss%3Ffamily%3DInter;" vertex="1" parent="1">
          <mxGeometry x="10" y="569" width="250" height="30" as="geometry" />
        </mxCell>
        <mxCell id="Xe7ZW9W7hVUSbhxKSRll-60" value="&lt;div&gt;Seat Ibiza&lt;/div&gt;" style="rounded=0;whiteSpace=wrap;html=1;align=center;fontFamily=Inter;fontSource=https%3A%2F%2Ffonts.googleapis.com%2Fcss%3Ffamily%3DInter;" vertex="1" parent="1">
          <mxGeometry x="160" y="670" width="80" height="80" as="geometry" />
        </mxCell>
        <mxCell id="Xe7ZW9W7hVUSbhxKSRll-61" value="&lt;div&gt;Renault Clio&lt;/div&gt;" style="rounded=0;whiteSpace=wrap;html=1;align=center;fontFamily=Inter;fontSource=https%3A%2F%2Ffonts.googleapis.com%2Fcss%3Ffamily%3DInter;" vertex="1" parent="1">
          <mxGeometry x="240" y="670" width="80" height="80" as="geometry" />
        </mxCell>
        <mxCell id="Xe7ZW9W7hVUSbhxKSRll-62" value="Audi A4" style="rounded=0;whiteSpace=wrap;html=1;align=center;fontFamily=Inter;fontSource=https%3A%2F%2Ffonts.googleapis.com%2Fcss%3Ffamily%3DInter;" vertex="1" parent="1">
          <mxGeometry x="320" y="670" width="80" height="80" as="geometry" />
        </mxCell>
        <mxCell id="Xe7ZW9W7hVUSbhxKSRll-63" value="Fiat Tipo" style="rounded=0;whiteSpace=wrap;html=1;align=center;fontFamily=Inter;fontSource=https%3A%2F%2Ffonts.googleapis.com%2Fcss%3Ffamily%3DInter;" vertex="1" parent="1">
          <mxGeometry x="400" y="670" width="80" height="80" as="geometry" />
        </mxCell>
        <mxCell id="Xe7ZW9W7hVUSbhxKSRll-64" value="EEPROM" style="text;html=1;align=center;verticalAlign=middle;whiteSpace=wrap;rounded=0;fontFamily=Inter;fontSource=https%3A%2F%2Ffonts.googleapis.com%2Fcss%3Ffamily%3DInter;" vertex="1" parent="1">
          <mxGeometry x="160" y="640" width="60" height="30" as="geometry" />
        </mxCell>
        <mxCell id="Xe7ZW9W7hVUSbhxKSRll-65" value="0" style="text;html=1;align=center;verticalAlign=middle;whiteSpace=wrap;rounded=0;" vertex="1" parent="1">
          <mxGeometry x="160" y="670" width="20" height="20" as="geometry" />
        </mxCell>
        <mxCell id="Xe7ZW9W7hVUSbhxKSRll-66" value="1" style="text;html=1;align=center;verticalAlign=middle;whiteSpace=wrap;rounded=0;" vertex="1" parent="1">
          <mxGeometry x="240" y="670" width="20" height="20" as="geometry" />
        </mxCell>
        <mxCell id="Xe7ZW9W7hVUSbhxKSRll-67" value="2" style="text;html=1;align=center;verticalAlign=middle;whiteSpace=wrap;rounded=0;" vertex="1" parent="1">
          <mxGeometry x="320" y="670" width="20" height="20" as="geometry" />
        </mxCell>
        <mxCell id="Xe7ZW9W7hVUSbhxKSRll-68" value="3" style="text;html=1;align=center;verticalAlign=middle;whiteSpace=wrap;rounded=0;" vertex="1" parent="1">
          <mxGeometry x="400" y="670" width="20" height="20" as="geometry" />
        </mxCell>
        <mxCell id="Xe7ZW9W7hVUSbhxKSRll-69" value="Vector" style="text;html=1;align=center;verticalAlign=middle;whiteSpace=wrap;rounded=0;fontFamily=Inter;fontSource=https%3A%2F%2Ffonts.googleapis.com%2Fcss%3Ffamily%3DInter;" vertex="1" parent="1">
          <mxGeometry x="100" y="810" width="60" height="30" as="geometry" />
        </mxCell>
        <mxCell id="Xe7ZW9W7hVUSbhxKSRll-70" value="0" style="rounded=0;whiteSpace=wrap;html=1;fontFamily=Inter;fontSource=https%3A%2F%2Ffonts.googleapis.com%2Fcss%3Ffamily%3DInter;" vertex="1" parent="1">
          <mxGeometry x="160" y="810" width="30" height="30" as="geometry" />
        </mxCell>
        <mxCell id="Xe7ZW9W7hVUSbhxKSRll-71" value="1" style="rounded=0;whiteSpace=wrap;html=1;fontFamily=Inter;fontSource=https%3A%2F%2Ffonts.googleapis.com%2Fcss%3Ffamily%3DInter;" vertex="1" parent="1">
          <mxGeometry x="190" y="810" width="30" height="30" as="geometry" />
        </mxCell>
        <mxCell id="Xe7ZW9W7hVUSbhxKSRll-72" value="3" style="rounded=0;whiteSpace=wrap;html=1;fontFamily=Inter;fontSource=https%3A%2F%2Ffonts.googleapis.com%2Fcss%3Ffamily%3DInter;" vertex="1" parent="1">
          <mxGeometry x="220" y="810" width="30" height="30" as="geometry" />
        </mxCell>
        <mxCell id="Xe7ZW9W7hVUSbhxKSRll-73" value="" style="endArrow=none;html=1;rounded=0;exitX=0.5;exitY=1;exitDx=0;exitDy=0;entryX=0.5;entryY=0;entryDx=0;entryDy=0;endSize=5;startSize=5;endFill=0;opacity=50;" edge="1" parent="1" source="Xe7ZW9W7hVUSbhxKSRll-60" target="Xe7ZW9W7hVUSbhxKSRll-70">
          <mxGeometry width="50" height="50" relative="1" as="geometry">
            <mxPoint x="200" y="810" as="sourcePoint" />
            <mxPoint x="250" y="760" as="targetPoint" />
          </mxGeometry>
        </mxCell>
        <mxCell id="Xe7ZW9W7hVUSbhxKSRll-74" value="" style="endArrow=none;html=1;rounded=0;exitX=0.5;exitY=1;exitDx=0;exitDy=0;entryX=0.5;entryY=0;entryDx=0;entryDy=0;endSize=5;startSize=5;endFill=0;opacity=50;" edge="1" parent="1" source="Xe7ZW9W7hVUSbhxKSRll-61" target="Xe7ZW9W7hVUSbhxKSRll-71">
          <mxGeometry width="50" height="50" relative="1" as="geometry">
            <mxPoint x="265" y="800" as="sourcePoint" />
            <mxPoint x="240" y="860" as="targetPoint" />
          </mxGeometry>
        </mxCell>
        <mxCell id="Xe7ZW9W7hVUSbhxKSRll-75" value="" style="endArrow=none;html=1;rounded=0;exitX=0.5;exitY=1;exitDx=0;exitDy=0;entryX=0.5;entryY=0;entryDx=0;entryDy=0;endSize=5;startSize=5;endFill=0;opacity=50;" edge="1" parent="1" source="Xe7ZW9W7hVUSbhxKSRll-63" target="Xe7ZW9W7hVUSbhxKSRll-72">
          <mxGeometry width="50" height="50" relative="1" as="geometry">
            <mxPoint x="465" y="800" as="sourcePoint" />
            <mxPoint x="340" y="860" as="targetPoint" />
          </mxGeometry>
        </mxCell>
        <mxCell id="Xe7ZW9W7hVUSbhxKSRll-78" value="2" style="rounded=0;whiteSpace=wrap;html=1;fontFamily=Inter;fontSource=https%3A%2F%2Ffonts.googleapis.com%2Fcss%3Ffamily%3DInter;" vertex="1" parent="1">
          <mxGeometry x="250" y="810" width="30" height="30" as="geometry" />
        </mxCell>
        <mxCell id="Xe7ZW9W7hVUSbhxKSRll-79" value="" style="endArrow=none;html=1;rounded=0;exitX=0.5;exitY=1;exitDx=0;exitDy=0;entryX=0.5;entryY=0;entryDx=0;entryDy=0;endSize=5;startSize=5;endFill=0;opacity=50;" edge="1" parent="1" source="Xe7ZW9W7hVUSbhxKSRll-62" target="Xe7ZW9W7hVUSbhxKSRll-78">
          <mxGeometry width="50" height="50" relative="1" as="geometry">
            <mxPoint x="505" y="790" as="sourcePoint" />
            <mxPoint x="300" y="850" as="targetPoint" />
          </mxGeometry>
        </mxCell>
      </root>
    </mxGraphModel>
  </diagram>
</mxfile>
